<svg width="168" height="72" viewBox="0 0 168 72" fill="none" xmlns="http://www.w3.org/2000/svg">
<g clip-path="url(#clip0_2420_6522)">
<g clip-path="url(#clip1_2420_6522)">
<path d="M37.7981 28.1778C37.7981 30.2889 36.5395 32.2377 34.5908 32.2377C33.86 32.2377 32.6826 31.7505 32.236 30.6543C34.6314 29.6799 34.8344 25.823 31.7082 25.823C28.2573 25.823 24.644 33.4557 24.644 41.7785C24.644 46.488 26.2274 50.3855 30.2467 50.3855C32.3578 50.3855 34.7532 49.7765 37.3515 48.315C37.7981 48.518 38.0417 48.8834 38.0417 49.2894C38.0417 49.5735 37.9605 49.8983 37.6763 50.1825C34.8344 53.0245 31.3429 54.1207 28.0137 54.1207C21.7614 54.1207 19.0413 48.6398 19.0413 42.5093C19.0413 32.3595 25.0094 23.1841 32.2766 23.1841C36.1336 23.1435 37.7981 25.7824 37.7981 28.1778Z" fill="#1E1E1E"/>
<path d="M47.0544 33.5352C49.0437 33.5352 50.6271 34.1035 51.8451 35.8899C51.7639 36.8237 51.0737 37.2297 50.5053 36.9861C49.7339 36.7019 48.9219 36.5395 47.9476 36.5395C44.3342 36.5395 41.9795 41.858 41.9795 45.7555C41.9795 49.2471 43.1569 50.6274 44.5778 50.6274C46.9326 50.6274 49.8963 46.7705 48.9625 42.467C48.2317 42.4264 47.5822 42.264 47.1356 41.9798C46.283 39.7874 47.1762 37.7981 49.4497 37.7981C50.9925 37.7981 52.2917 38.6913 52.8195 40.1528C55.499 39.5438 57.7726 38.1229 59.6401 36.9049C60.1273 37.2297 60.1273 38.3665 59.4371 38.8943C58.4627 39.6656 55.7426 41.5738 53.1443 42.061C52.9007 48.0697 47.501 54.0784 42.7509 54.0784C38.6503 54.0784 36.9046 50.7898 36.9046 47.0547C36.9046 41.046 41.0863 33.5352 47.0544 33.5352Z" fill="#1E1E1E"/>
<path d="M75.7576 37.7575C74.7426 38.6507 73.1593 40.5182 71.5353 41.5332C71.5759 41.6956 71.5759 41.858 71.5759 41.9798C71.5759 48.0697 65.9732 54.0784 61.1825 54.0784C57.082 54.0784 55.3362 50.7898 55.3362 47.0547C55.3362 41.046 59.5179 33.5352 65.5266 33.5352C67.516 33.5352 69.0993 34.1035 70.3173 35.8899C70.2361 36.8237 69.5459 37.2297 68.9775 36.9861C68.2062 36.7019 67.3942 36.5395 66.4198 36.5395C62.8065 36.5395 60.4517 41.858 60.4517 45.7555C60.4517 49.2471 61.6291 50.6274 63.0501 50.6274C65.08 50.6274 67.6378 47.7043 67.6378 44.091C67.6378 43.5632 67.5566 43.0354 67.4348 42.467C66.704 42.4264 66.0544 42.264 65.6078 41.9798C64.7552 39.7874 65.6484 37.7981 67.922 37.7981C69.2617 37.7981 70.4391 38.4883 71.0481 39.625C72.6315 38.6507 74.093 36.9049 75.7982 35.5651C76.4884 36.2147 76.2854 37.3109 75.7576 37.7575Z" fill="#1E1E1E"/>
<path d="M78.7623 42.7929L79.5743 42.5899C82.1321 41.8185 83.4313 40.3569 83.4313 37.9616C83.4313 36.8654 83.2689 36.094 82.8629 35.485C83.3907 34.4295 84.568 33.6581 85.9484 33.6581C87.4506 33.6581 88.1814 34.5107 88.1814 36.6218C88.222 39.7886 85.7048 42.1839 83.2283 43.4019C83.7967 45.716 84.9334 49.979 87.6942 49.979C88.5062 49.979 89.3587 49.2482 90.4143 48.3144C90.8609 48.5174 91.1045 48.8828 91.1045 49.2888C91.1045 49.573 90.9827 49.8978 90.7391 50.1819C89.3181 51.9277 86.5574 54.1201 84.8928 54.1201C80.9141 54.1201 79.8991 47.746 79.2901 44.6605L78.3564 44.9041L76.9354 51.6435C76.57 53.4705 75.149 54.1607 73.8092 54.1607C73.0785 54.1607 72.4289 53.9577 71.9417 53.6329L76.8948 30.0447C77.0572 29.3952 76.8542 29.0704 76.4888 29.0704C76.2858 29.0704 76.0422 29.2328 75.6768 29.5576C75.149 29.2328 74.8648 28.0148 75.6768 27.3652C77.0166 26.3096 78.4782 25.457 80.1427 25.457C81.5637 25.457 82.3351 26.1472 82.0509 27.6494L78.7623 42.7929Z" fill="#1E1E1E"/>
<path d="M97.2345 36.176L93.4588 53.7554C91.1446 64.4736 89.074 69.0613 83.5119 69.0613C81.1166 69.0613 79.1272 67.7622 79.1272 64.3924C79.1272 63.7023 79.655 63.3369 80.4264 63.3369C80.7512 64.7578 81.6444 65.5292 83.1871 65.5292C85.9073 65.5292 87.0441 61.8753 88.7898 53.7554L92.5656 36.176H90.5762C90.3732 34.9174 91.0228 33.8618 92.2408 33.8618H93.0528L93.3776 32.4409C94.4737 27.3254 97.8841 24.1992 101.66 24.1992C105.03 24.1992 106.654 25.4578 106.654 28.0561C106.654 30.2891 105.354 31.3853 103.852 31.3041C103.324 31.2635 102.797 31.1011 102.269 30.7357C102.715 29.7613 102.918 28.7057 102.918 28.1373C102.918 27.366 102.431 27.0006 101.457 27.0006C99.6298 27.0006 98.6148 29.6801 98.0059 32.6439L97.7217 33.8212H100.767C100.97 35.0798 100.32 36.1354 99.102 36.1354H97.2345V36.176Z" fill="#1E1E1E"/>
<path d="M120.254 37.7575C119.239 38.6507 117.655 40.5182 116.031 41.5332C116.072 41.6956 116.072 41.858 116.072 41.9798C116.072 48.0697 110.469 54.0784 105.679 54.0784C101.578 54.0784 99.8323 50.7898 99.8323 47.0547C99.8323 41.046 104.014 33.5352 110.023 33.5352C112.012 33.5352 113.595 34.1035 114.813 35.8899C114.732 36.8237 114.042 37.2297 113.474 36.9861C112.702 36.7019 111.89 36.5395 110.916 36.5395C107.303 36.5395 104.948 41.858 104.948 45.7555C104.948 49.2471 106.125 50.6274 107.546 50.6274C109.576 50.6274 112.134 47.7043 112.134 44.091C112.134 43.5632 112.053 43.0354 111.931 42.467C111.2 42.4264 110.551 42.264 110.104 41.9798C109.251 39.7874 110.145 37.7981 112.418 37.7981C113.758 37.7981 114.935 38.4883 115.544 39.625C117.128 38.6507 118.589 36.9049 120.294 35.5651C120.984 36.2147 120.822 37.3109 120.254 37.7575Z" fill="#1E1E1E"/>
<path d="M126.183 38.0043C127.766 34.7969 129.471 33.6602 131.298 33.6602C133.206 33.6602 134.221 35.1623 134.221 36.7863C134.221 38.5727 133.125 40.5214 131.055 40.5214C130.689 40.5214 130.243 40.4808 129.918 40.359C130.202 40.1154 130.364 39.5876 130.364 39.141C130.364 38.5727 129.958 38.1667 129.146 38.1667C127.847 38.1667 125.98 39.953 123.95 49.1285L123.462 51.5644C123.056 53.3914 121.554 54.0816 120.133 54.0816C119.403 54.0816 118.753 53.8786 118.266 53.5538L121.514 38.2885C121.636 37.6389 121.473 37.3141 121.108 37.3141C120.905 37.3141 120.661 37.4765 120.296 37.8013C119.768 37.4765 119.484 36.2585 120.296 35.6089C121.636 34.5533 123.097 33.7008 124.762 33.7008C126.183 33.7008 126.995 34.3909 126.67 35.8931L126.183 38.0043Z" fill="#1E1E1E"/>
<path d="M136.211 38.2869C136.332 37.6373 136.17 37.3125 135.805 37.3125C135.602 37.3125 135.358 37.4749 134.993 37.7997C134.465 37.4749 134.181 36.257 134.993 35.6074C136.332 34.5518 137.794 33.6992 139.459 33.6992C140.879 33.6992 141.691 34.3894 141.367 35.8916L138.931 47.3812C138.444 49.6141 139.093 50.3043 140.108 50.3043C141.57 50.3043 143.275 49.3299 144.29 48.3149C144.736 48.5179 144.98 48.8833 144.98 49.2893C144.98 49.5735 144.858 49.8983 144.615 50.1825C142.747 52.2937 140.068 54.1206 137.429 54.1206C135.439 54.1206 133.125 53.0244 133.896 49.3705L136.211 38.2869Z" fill="#1E1E1E"/>
<path d="M159.757 47.3404C159.311 49.3704 159.839 50.2636 160.651 50.2636C161.381 50.2636 162.275 49.7764 162.884 48.3554C163.655 48.3554 164.061 48.7614 164.061 49.411C164.061 52.2123 160.813 54.0799 158.58 54.0799C156.712 54.0799 154.845 53.1867 154.885 50.0606C153.221 52.4153 151.11 54.0799 148.836 54.0799C144.695 54.0799 143.883 49.9388 143.883 47.381C143.883 40.4386 148.39 33.4961 153.911 33.4961C155.697 33.4961 156.997 33.9427 158.012 34.7953C158.702 33.9833 159.717 33.6585 160.732 33.6585C161.463 33.6585 162.112 33.8615 162.599 34.1863L159.757 47.3404ZM154.967 47.4622L157.2 36.7846C156.509 36.541 155.941 36.4598 155.332 36.4598C150.501 36.4598 148.796 42.7527 148.796 47.0968C148.796 49.0862 149.729 49.9794 150.947 49.9794C152.206 49.9794 153.871 48.9644 154.967 47.4622Z" fill="#1E1E1E"/>
<path d="M141.287 4.78906C139.866 4.78906 138.485 5.03266 137.186 5.47925C139.541 8.40239 142.221 11.6909 142.261 11.7315C142.261 11.7315 142.708 12.3405 143.317 12.5435C144.859 11.8127 146.93 12.4623 148.351 14.0863C149.122 15.0201 149.61 16.1162 149.65 17.2124C149.691 18.3086 149.325 19.2424 148.595 19.892C148.026 20.3792 147.336 20.5822 146.605 20.5822C145.347 20.5822 143.966 19.9326 142.951 18.7552C141.53 17.0906 141.246 14.8983 142.221 13.5179C142.139 13.1119 141.815 12.5841 141.287 12.0563C141.124 11.8939 140.231 10.9195 139.135 9.70157C138.161 8.60539 136.943 7.30621 135.846 6.08824C131.584 8.1182 128.66 12.4623 128.66 17.4966C128.66 24.4797 134.953 30.6914 141.977 30.6914C141.977 30.6914 139.663 27.7276 142.708 27.5246C143.276 27.484 143.804 27.4028 144.332 27.3216C142.627 25.0075 141.043 23.0587 141.003 23.0587C141.003 23.0587 140.312 22.0031 139.257 22.0031C139.216 22.0031 139.176 22.0437 139.094 22.0437C138.688 22.2061 137.227 22.6933 136.049 21.1911C136.049 21.1911 136.049 21.1505 136.009 21.1505C135.968 21.1099 135.928 21.0287 135.887 20.9881C135.034 19.892 132.436 16.0756 132.396 16.035L132.355 15.9538L132.964 15.4667L136.09 19.5672C136.212 19.7296 136.455 19.7296 136.618 19.6078C136.78 19.486 136.821 19.2424 136.699 19.08C133.898 15.3043 133.695 15.0201 133.654 14.9795L133.613 14.8983L134.304 14.3705L137.389 18.268C137.511 18.3898 137.714 18.4304 137.876 18.3086C137.958 18.2274 137.998 18.1056 137.998 17.9838V17.9432C137.998 17.9026 137.998 17.9026 137.958 17.862C137.958 17.862 137.958 17.8214 137.917 17.8214L134.872 13.8427L135.481 13.3555L135.522 13.4367L138.445 16.8876C138.567 17.05 138.77 17.05 138.932 16.9282C139.094 16.8064 139.094 16.6034 139.013 16.4816V16.441C137.186 14.2081 136.212 12.9089 136.212 12.9089L136.171 12.8277L136.74 12.3811L136.78 12.4623C136.78 12.5029 138.81 14.5735 140.15 16.0756C140.231 16.1974 140.312 16.2786 140.394 16.3598L140.475 16.441C140.637 16.6034 140.759 16.7658 140.881 16.8876C140.921 16.9282 140.962 17.0094 141.003 17.05L141.043 17.0906C142.261 18.5522 141.49 19.892 141.206 20.2574C141.165 20.298 141.165 20.3386 141.124 20.4198C140.921 21.3941 141.774 22.3279 141.774 22.3279L144.575 25.5353C144.778 25.7789 145.265 26.266 145.712 26.7938C145.753 26.8344 145.793 26.875 145.834 26.9156C150.828 25.5759 153.994 21.8813 153.994 17.3748C153.954 10.473 148.31 4.78906 141.287 4.78906Z" fill="#1E1E1E"/>
<path d="M27.5663 21.6003C27.2009 21.9657 26.7949 22.3311 26.4295 22.6965L33.4126 19.611C33.0472 19.2456 32.6818 18.8396 32.3164 18.4742C31.951 18.0682 31.5856 17.7028 31.2608 17.2968L30.2052 16.1194L29.4745 15.3074C28.0129 16.16 26.5919 17.0126 25.1709 17.9058C23.6688 18.8802 22.1666 19.8951 20.7456 20.9913C19.3247 22.0875 17.9443 23.2243 16.6451 24.4829C15.5083 25.579 14.4122 26.7564 13.4378 28.0556L13.3972 28.3804C13.2754 29.1518 13.0724 29.8826 12.7476 30.6133C12.5852 30.9787 12.3822 31.3035 12.1792 31.6283C11.9356 31.9531 11.692 32.2373 11.3266 32.3997C11.8138 31.8313 12.0168 31.1005 12.1792 30.4103C12.3416 29.7202 12.4228 28.9894 12.4634 28.2586C12.504 27.5278 12.504 26.797 12.4634 26.0662C12.4634 25.3354 12.3822 24.6453 12.3822 23.8333C12.3822 23.0619 12.504 22.2499 12.7476 21.4785C13.0318 20.7071 13.3566 19.9763 13.925 19.3674C14.9805 18.1494 16.4827 17.378 18.0255 17.3374C16.6045 17.9058 15.4271 18.799 14.6963 19.9357C14.2904 20.5041 14.0874 21.1537 13.8844 21.8033L13.7626 22.2905L13.722 22.5341L13.6814 22.7777C13.6408 23.1431 13.6002 23.4679 13.6408 23.8333C13.6408 24.5235 13.6814 25.2948 13.6814 26.0662C13.6814 26.4316 13.6814 26.8376 13.6002 27.203C14.1686 25.9444 14.9399 24.7671 15.7519 23.6303C16.8887 22.1281 18.2285 20.7883 19.6901 19.611C21.1516 18.393 22.6944 17.378 24.3184 16.4442C25.9423 15.5104 27.6475 14.739 29.3933 14.0895L29.4745 14.0489C29.4339 13.8053 29.3933 13.6023 29.3933 13.3587C29.3527 12.9527 29.3527 12.5467 29.3527 12.1001C29.3527 11.6941 29.3527 11.2881 29.3933 10.8415C29.3933 10.6385 29.4339 10.4355 29.4745 10.1919C29.5151 9.98894 29.5557 9.78594 29.5963 9.58295C29.7181 8.81156 29.7587 7.99958 29.5963 7.30939C29.4339 6.57861 29.0685 6.01022 28.5407 5.52303C28.0129 5.03584 27.3633 4.67044 26.6731 4.38625C25.9829 4.10206 25.2521 3.89906 24.5214 3.81786C23.0598 3.61487 21.517 3.77726 20.0148 4.18325C17.0105 5.11704 14.2904 6.9034 12.2604 9.33935C11.8138 9.90774 11.489 10.6385 11.2048 11.3693C10.9206 12.1001 10.7582 12.8715 10.6364 13.6835C10.5552 14.4549 10.5552 15.2668 10.677 16.0788C10.8394 16.8502 11.1236 17.6216 11.5702 18.3524C11.0424 17.7434 10.5958 16.972 10.3522 16.2006C10.1086 15.3886 9.98684 14.5361 9.98684 13.6835C9.98684 13.6429 9.98684 13.6429 9.98684 13.6023C9.82444 13.8459 9.66205 14.0489 9.45905 14.2925C8.93126 14.9014 8.36287 15.4292 7.83508 15.957C6.7389 17.0532 5.76452 18.19 4.99314 19.4486C4.22175 20.7071 3.73456 22.0875 3.53157 23.5085C3.40977 24.8889 3.45037 26.391 3.69396 27.812C3.97816 29.233 4.38415 30.6133 5.15553 31.8313C5.88632 33.0493 6.9013 34.0643 8.15988 34.6327C9.41845 35.2416 10.88 35.2416 12.1792 34.6327C13.3972 34.0643 14.4122 33.0087 15.2647 31.8313C15.1835 31.7095 15.1023 31.5877 15.0211 31.4659C14.6152 30.8569 14.2498 30.2073 13.8844 29.5984C14.4122 30.1262 14.8993 30.6539 15.3865 31.2223C15.7519 31.6283 16.0767 31.9937 16.4421 32.3997C17.1729 30.9381 18.0255 29.5578 18.9999 28.218C20.0554 26.7564 21.2328 25.376 22.532 24.0769C23.8312 22.7777 25.2115 21.6003 26.7543 20.5853C27.5257 20.0981 28.2971 19.611 29.1497 19.205C29.9617 18.799 30.8142 18.4742 31.7074 18.2306C30.9766 18.7584 30.2864 19.3268 29.5963 19.8545C28.8655 20.4635 28.2159 21.0319 27.5663 21.6003Z" fill="#1E1E1E"/>
</g>
</g>
<defs>
<clipPath id="clip0_2420_6522">
<rect width="168" height="71.4546" fill="white"/>
</clipPath>
<clipPath id="clip1_2420_6522">
<rect width="168" height="71.4546" fill="white"/>
</clipPath>
</defs>
</svg>
