<svg width="14" height="15" viewBox="0 0 14 15" fill="none" xmlns="http://www.w3.org/2000/svg">
<path d="M12.997 2.99703C13.0583 2.93584 13.1 2.85786 13.1169 2.77295C13.1338 2.68803 13.1251 2.60001 13.092 2.52003C13.0589 2.44004 13.0027 2.37169 12.9307 2.32362C12.8587 2.27555 12.7741 2.24993 12.6875 2.25H1.31248C1.2259 2.24993 1.14125 2.27555 1.06924 2.32362C0.997226 2.37169 0.941098 2.44004 0.907956 2.52003C0.874814 2.60001 0.86615 2.68803 0.883059 2.77295C0.899969 2.85786 0.941692 2.93584 1.00295 2.99703L6.56248 8.55602V11.875H4.81248C4.69645 11.875 4.58517 11.9211 4.50312 12.0031C4.42107 12.0852 4.37498 12.1965 4.37498 12.3125C4.37498 12.4285 4.42107 12.5398 4.50312 12.6219C4.58517 12.7039 4.69645 12.75 4.81248 12.75H9.18748C9.30351 12.75 9.41479 12.7039 9.49684 12.6219C9.57888 12.5398 9.62498 12.4285 9.62498 12.3125C9.62498 12.1965 9.57888 12.0852 9.49684 12.0031C9.41479 11.9211 9.30351 11.875 9.18748 11.875H7.43748V8.55602L12.997 2.99703ZM2.36849 3.125H11.6315L10.7565 4H3.24349L2.36849 3.125ZM6.99998 7.75648L4.11849 4.875H9.88146L6.99998 7.75648Z" fill="#343330"/>
</svg>
