<svg width="24" height="24" viewBox="0 0 24 24" fill="none" xmlns="http://www.w3.org/2000/svg">
<path d="M21.7024 2.17127C21.5345 2.02647 21.3303 1.93023 21.1117 1.89289C20.8932 1.85556 20.6686 1.87855 20.4621 1.9594L1.46274 9.39471C1.11789 9.52901 0.825996 9.77168 0.630966 10.0862C0.435936 10.4007 0.348324 10.7701 0.381314 11.1387C0.414304 11.5073 0.566111 11.8552 0.813893 12.13C1.06167 12.4049 1.39203 12.5919 1.75524 12.6628L6.37524 13.5694V18.75C6.37523 19.1238 6.48694 19.4891 6.69602 19.7989C6.90511 20.1087 7.20202 20.349 7.54865 20.4889C7.89529 20.6287 8.27581 20.6618 8.64137 20.5838C9.00693 20.5058 9.34084 20.3204 9.60024 20.0513L11.7255 17.8472L15.2206 20.9063C15.4643 21.1207 15.7596 21.2681 16.0775 21.3341C16.3954 21.4001 16.725 21.3825 17.034 21.2829C17.343 21.1833 17.6209 21.0051 17.8404 20.7659C18.0599 20.5267 18.2135 20.2346 18.2862 19.9181L22.0943 3.36659C22.1438 3.15055 22.1335 2.92508 22.0645 2.71446C21.9954 2.50384 21.8703 2.31604 21.7024 2.17127ZM13.0699 7.26752L7.23961 11.446L4.0118 10.8131L13.0699 7.26752ZM8.62524 17.8181V15.1266L10.0315 16.3594L8.62524 17.8181ZM16.234 18.8044L9.30774 12.7322L19.2743 5.59033L16.234 18.8044Z" fill="#1E4759"/>
</svg>
